<?xml version="1.0" standalone="no"?>
<!DOCTYPE svg PUBLIC "-//W3C//DTD SVG 20010904//EN"
 "http://www.w3.org/TR/2001/REC-SVG-20010904/DTD/svg10.dtd">
<svg version="1.0" xmlns="http://www.w3.org/2000/svg"
 width="212.000000pt" height="212.000000pt" viewBox="0 0 212.000000 212.000000"
 preserveAspectRatio="xMidYMid meet">
<metadata>
Created by potrace 1.11, written by Peter Selinger 2001-2013
</metadata>
<g transform="translate(0.000000,212.000000) scale(0.100000,-0.100000)"
fill="#000000" stroke="none">
<path d="M110 1055 l0 -945 945 0 945 0 0 945 0 945 -945 0 -945 0 0 -945z
m657 295 c66 -40 68 -49 71 -312 3 -218 2 -241 -16 -282 -23 -50 -53 -74 -105
-83 -54 -8 -104 5 -142 38 -49 43 -57 98 -53 342 3 228 13 263 78 299 46 24
125 24 167 -2z m453 8 c0 -13 -255 -667 -263 -675 -3 -2 -19 -3 -36 -1 l-30 3
130 330 c72 181 135 335 141 342 13 17 58 17 58 1z m138 -145 l3 -153 82 0 82
0 0 152 0 153 38 3 37 3 0 -345 0 -346 -40 0 -41 0 2 153 1 152 -81 3 -81 3 0
-156 0 -155 -40 0 -40 0 0 338 c0 186 3 342 7 346 4 4 21 6 38 4 l30 -3 3
-152z"/>
<path d="M629 1281 c-24 -19 -24 -22 -27 -237 -2 -120 -1 -229 3 -241 15 -62
86 -83 130 -38 l25 24 0 231 0 231 -25 24 c-29 30 -74 32 -106 6z"/>
</g>
</svg>
